<svg width="428" height="491" viewBox="0 0 428 491" fill="none" xmlns="http://www.w3.org/2000/svg">
<g clip-path="url(#clip0_2_24)">
<path d="M-32.2424 332.188C-41.5503 330.435 -50.9355 329.135 -60.3317 327.845C-61.7102 327.657 -63.2211 328.374 -65.2614 328.793C-53.4058 347.192 -42.1017 364.742 -30.7865 382.381C-30.1892 383.411 -29.3675 384.294 -28.3824 384.964C-27.3973 385.634 -26.274 386.073 -25.0958 386.25C-16.104 387.683 -7.09748 389.025 1.92377 390.274C3.4126 390.472 5.00063 389.998 7.09602 389.778C6.72817 388.735 6.28976 387.718 5.78371 386.735C-5.02414 369.89 -15.7989 353.013 -26.7722 336.278C-28.051 334.289 -30.0116 332.835 -32.2864 332.188" fill="#C6B09A"/>
<path d="M85.9381 73.6076C84.736 64.2151 83.0597 54.8667 81.3833 45.5624C81.1407 44.1844 79.9828 42.9717 78.9571 41.1528C65.1275 58.1078 51.9264 74.3352 38.6262 90.4855C37.8327 91.3751 37.2477 92.4305 36.9139 93.5748C36.58 94.719 36.5056 95.9233 36.6962 97.0999C38.1225 106.096 39.6334 115.073 41.2289 124.032C41.4935 125.509 42.442 126.876 43.3022 128.805C44.1798 128.129 45.009 127.392 45.7836 126.6C58.4773 111.167 71.149 95.6558 83.7324 80.0567C85.2271 78.242 86.011 75.9461 85.9381 73.5966" fill="#C6B09A"/>
<path d="M368.475 106.051C377.033 102.006 385.404 97.5299 393.752 93.0541C394.987 92.3927 395.781 90.9265 397.182 89.3941C376.779 81.4788 357.27 73.9604 337.794 66.2436C336.703 65.7654 335.52 65.5361 334.329 65.5723C333.139 65.6086 331.972 65.9094 330.912 66.453C322.825 70.5907 314.737 74.8019 306.65 79.0866C305.326 79.7921 304.323 81.115 302.757 82.5261C303.667 83.1568 304.621 83.7205 305.613 84.2128C324.262 91.4887 342.9 98.8087 361.615 105.897C363.801 106.763 366.229 106.802 368.442 106.007" fill="#C6B09A"/>
<path d="M424.918 384.685C431.414 391.564 438.252 398.134 445.089 404.693C446.104 405.663 447.747 405.972 449.633 406.821C450.868 384.982 452.004 364.103 453.261 343.223C453.383 342.038 453.237 340.84 452.834 339.718C452.432 338.596 451.782 337.579 450.934 336.741C444.501 330.303 438.002 323.927 431.436 317.614C430.333 316.578 428.789 316.027 426.958 314.98C426.642 316.037 426.402 317.117 426.242 318.21C425.073 338.185 423.871 358.172 422.933 378.158C422.785 380.506 423.499 382.826 424.94 384.685" fill="#C6B09A"/>
<path d="M255.5 478.83C254.993 479.372 254.7 480.079 254.673 480.821C254.647 481.562 254.89 482.288 255.357 482.865C257.364 486.172 259.349 489.479 261.213 492.919C266.209 501.992 270.885 511.197 272.682 521.582C272.936 523.07 274.171 524.47 275.153 525.749C276.939 528.097 278.847 530.368 280.788 532.617C282.869 535.208 285.108 537.667 287.493 539.981C288.861 541.204 289.456 542.185 289.148 544.004C288.747 545.951 288.635 547.946 288.817 549.924C289.423 554.621 291.023 558.832 296.062 561.599C296.592 556.484 297.088 551.876 297.507 547.268C297.519 546.703 297.679 546.152 297.97 545.669C303.676 545.543 309.353 544.827 314.91 543.53C349.826 535.439 379.978 511.087 399.608 481.796C404.758 474.134 392.054 477.827 389.043 478.874C380.628 481.796 370.769 488.057 365.74 495.543C356.697 508.992 346.098 517.591 333.405 520.567L325.244 516.907C330.008 514.67 334.487 511.872 338.588 508.573C347.411 500.856 348.911 490.648 347.929 479.712C347.124 470.694 347.466 465.05 344.764 456.562C343.231 451.951 342.123 447.209 341.455 442.396C340.573 435.098 344.433 425.452 350.863 419.058C363.884 417.807 377.025 418.901 389.661 422.288C391.072 422.652 391.778 406.567 391.8 405.322C391.8 403.238 392.815 389.006 390.212 388.312C380.552 385.858 370.633 384.57 360.667 384.475C348.227 384.288 337.055 386.878 325.806 391.222C318.204 393.487 311.16 397.318 305.128 402.467C299.614 407.064 296.305 413.193 293.305 419.488C287.791 430.82 278.56 438.229 267.73 444.06C266.076 444.942 264.135 445.427 263.893 442.837C263.385 437.325 263.418 419.785 263.749 414.295C264.08 408.805 267.212 404.936 272.572 402.952C275.88 401.717 279.189 400.085 282.497 398.851C284.869 397.98 286.225 396.866 285.519 394.055C285.238 392.39 285.091 390.706 285.078 389.017C284.538 383.207 283.975 377.409 283.413 371.379C282.75 371.539 282.109 371.78 281.505 372.095C272.462 378.908 263.209 385.489 255.831 394.254C252.96 397.597 251.393 401.864 251.42 406.27C251.331 418.077 252.368 441.657 254.893 453.122C255.996 458.083 260.044 460.464 265.051 459.593C266.51 459.299 267.934 458.848 269.297 458.248C276.112 455.459 282.928 452.67 289.688 449.749C292.037 448.746 293.195 449.065 294.022 451.722C294.809 454.496 296.083 457.109 297.783 459.439C300.664 463.098 303.836 466.519 307.267 469.669C313.223 475.181 315.66 482.898 313.311 489.909C312.528 492.257 311.337 493.757 308.547 493.117C302.955 491.828 297.187 491.045 291.794 489.193C288.725 488.226 285.982 486.431 283.869 484.006C281.756 481.58 280.354 478.618 279.818 475.446L255.5 478.83Z" fill="#C6B09A"/>
<path d="M35.3398 392.468C34.6672 392.15 33.9022 392.087 33.1865 392.289C32.4707 392.492 31.8527 392.947 31.4467 393.57C28.9212 396.503 26.3516 399.424 23.7268 402.246C16.6356 409.798 9.32383 417.095 -0.0062027 422.001C-1.35167 422.718 -2.30015 424.316 -3.21551 425.639C-4.90285 428.075 -6.46885 430.578 -8.0018 433.125C-9.82713 435.902 -11.4738 438.792 -12.9316 441.778C-13.6815 443.454 -14.4315 444.325 -16.2401 444.589C-18.219 444.809 -20.1548 445.318 -21.9859 446.1C-26.2539 448.128 -29.7719 450.961 -30.8086 456.606C-25.7686 455.503 -21.2359 454.566 -16.7143 453.541C-16.1688 453.395 -15.5944 453.395 -15.049 453.541C-13.1593 458.922 -10.7202 464.094 -7.77025 468.975C10.7134 499.655 43.181 520.788 77.1485 530.423C86.0374 532.947 78.5932 522.012 76.6742 519.476C71.2813 512.376 62.3374 504.946 53.6029 502.466C38.0197 498.056 26.5612 490.615 19.8118 479.459L20.7602 470.573C24.3626 474.409 28.409 477.803 32.8142 480.682C42.9273 486.613 53.0624 484.96 63.1644 480.682C71.5019 477.121 76.972 475.71 84.2397 470.507C88.1586 467.631 92.334 465.122 96.7129 463.011C103.33 459.902 113.752 460.596 121.814 464.73C127.026 476.727 130.047 489.559 130.736 502.62C130.824 504.064 146.341 499.776 147.532 499.412C149.539 498.806 163.38 495.333 163.225 492.643C162.57 482.698 160.718 472.867 157.711 463.364C154.05 451.48 148.138 441.668 140.529 432.309C135.993 425.76 130.136 420.233 123.335 416.081C117.259 412.278 110.41 411.054 103.484 410.106C91.0002 408.375 81.0636 401.882 72.1968 393.383C70.8513 392.082 69.7926 390.384 72.1968 389.359C77.2698 387.154 93.9778 381.785 99.3045 380.407C104.631 379.029 109.285 380.804 112.814 385.269C115.02 388.069 117.579 390.627 119.795 393.438C121.35 395.422 122.828 396.359 125.309 394.816C126.809 394.043 128.365 393.383 129.964 392.843C135.323 390.538 140.672 388.212 146.263 385.798C145.906 385.22 145.48 384.687 144.995 384.211C135.709 377.718 126.6 370.982 115.979 366.66C111.914 364.935 107.359 364.747 103.164 366.131C91.9045 369.692 69.7926 377.96 59.6575 383.902C55.2461 386.482 54.2756 391.068 56.6467 395.566C57.3815 396.862 58.2501 398.077 59.2384 399.192C64.0026 404.804 68.7669 410.415 73.5753 415.949C75.2516 417.867 75.3068 419.058 73.0349 420.678C70.6491 422.289 68.5627 424.303 66.8699 426.631C64.2789 430.501 62.007 434.575 60.0765 438.813C56.6798 446.166 50.0848 450.873 42.6847 450.807C40.2033 450.807 38.4057 450.113 38.1631 447.268C37.6558 441.547 36.619 435.836 36.7073 430.126C36.683 426.91 37.5462 423.749 39.2019 420.991C40.8576 418.234 43.2418 415.985 46.0925 414.494L35.3398 392.468Z" fill="#C6B09A"/>
<path d="M49.4562 156.476C49.5417 155.752 49.3666 155.022 48.9624 154.416C48.5582 153.81 47.9513 153.368 47.2505 153.168C43.6773 151.669 40.104 150.126 36.597 148.472C27.2229 144.062 18.0252 139.377 10.4597 132.024C9.3569 130.922 7.55927 130.558 6.04838 130.095C3.21407 129.246 0.335625 128.53 -2.54279 127.89C-5.75546 127.018 -9.01864 126.345 -12.3139 125.873C-14.1336 125.674 -15.1923 125.244 -16.0084 123.591C-16.8321 121.778 -17.9171 120.095 -19.2288 118.597C-22.4711 115.157 -26.2539 112.688 -31.9556 113.416C-29.3639 117.825 -27.0699 121.882 -24.6878 125.862C-24.362 126.323 -24.1678 126.864 -24.1255 127.427C-28.665 130.89 -32.8371 134.809 -36.5764 139.124C-60.0559 166.177 -70.0918 203.559 -68.8125 238.792C-68.4706 248.019 -60.3648 237.569 -58.5451 234.956C-53.45 227.636 -49.171 216.788 -49.4908 207.771C-50.0863 191.576 -46.5681 178.391 -38.0542 168.536L-29.2977 166.695C-31.8355 171.304 -33.8126 176.201 -35.1869 181.28C-37.7124 192.723 -32.9813 201.851 -25.7797 210.119C-19.8134 216.943 -16.7805 221.705 -9.58996 227.019C-5.62739 229.846 -1.93547 233.035 1.43845 236.543C6.45638 241.934 8.99295 251.977 7.54823 260.951C-2.25061 269.613 -13.5235 276.449 -25.7356 281.136C-27.0921 281.665 -18.2032 295.092 -17.4974 296.117C-16.3063 297.837 -8.67466 309.92 -6.2043 308.938C3.05354 305.248 11.836 300.463 19.9552 294.684C30.1344 287.53 37.6006 278.876 44.2177 268.756C49.0277 262.449 52.4717 255.211 54.3307 247.501C56.0731 240.556 55.1248 233.666 53.8896 226.787C51.6839 214.385 54.7718 202.931 60.1316 191.874C60.9477 190.187 62.2381 188.666 63.9475 190.617C67.5979 194.762 77.8874 208.983 80.843 213.613C83.7986 218.243 83.556 223.226 80.4018 227.945C78.4167 230.921 76.7735 234.118 74.7774 237.095C73.3768 239.2 72.9356 240.887 75.1633 242.75C76.3634 243.934 77.4695 245.209 78.4719 246.564L90.2061 259.881C90.6334 259.36 91.0032 258.795 91.3089 258.195C94.6175 247.358 98.2348 236.598 99.0288 225.122C99.4122 220.723 98.1813 216.334 95.5659 212.775C88.6952 203.173 74.0053 184.708 65.2157 176.914C61.4109 173.541 56.7349 174.004 53.1948 177.653C52.1857 178.747 51.2948 179.944 50.5369 181.225C46.677 187.497 42.817 193.759 39.0453 200.087C37.7329 202.292 36.6191 202.71 34.3803 201.046C32.1152 199.27 29.5541 197.907 26.8148 197.022C22.3296 195.753 17.7488 194.85 13.1175 194.321C5.06675 193.373 -1.451 188.556 -3.66771 181.5C-4.41764 179.13 -4.32938 177.223 -1.69358 176.098C3.58903 173.894 8.70621 171.104 14.1653 169.429C17.2162 168.408 20.4899 168.25 23.6252 168.971C26.7604 169.693 29.6352 171.267 31.932 173.519L49.4562 156.476Z" fill="#C6B09A"/>
<path d="M278.395 96.9786C279.125 96.8385 279.781 96.4385 280.239 95.8528C280.697 95.267 280.927 94.5352 280.887 93.7927C281.207 89.9343 281.571 86.0758 282.056 82.2284C283.358 71.943 284.979 61.7457 289.633 52.2871C290.306 50.9311 290.129 49.0791 290.096 47.4696C290.03 44.5151 289.82 41.5607 289.567 38.6503C289.406 35.3234 289.037 32.0098 288.464 28.7287C288.078 26.9428 288.166 25.7962 289.49 24.5064C290.959 23.1668 292.222 21.6178 293.239 19.9094C295.511 15.7533 296.691 11.3988 294.243 6.20648C290.813 10.0429 287.703 13.4714 284.648 16.955C284.31 17.4073 283.857 17.7612 283.336 17.9802C278.637 14.7348 273.619 11.9791 268.359 9.75623C235.362 -4.21126 196.674 -2.19386 163.589 9.91057C154.921 13.0855 167.372 17.5613 170.427 18.4873C178.952 21.0669 190.609 21.7945 199.101 18.6967C214.331 13.1296 227.962 12.391 239.972 17.44L244.383 25.1569C239.215 24.1677 233.946 23.7976 228.69 24.0545C217.022 25.1569 209.798 32.4989 204.152 41.9134C199.509 49.6964 195.914 54.0399 193.123 62.5284C191.653 67.1592 189.756 71.6432 187.455 75.9227C183.882 82.3607 175.081 87.8838 166.126 89.2838C154.859 82.6391 144.871 74.0334 136.636 63.8734C135.709 62.771 125.685 75.3494 124.935 76.3416C123.666 77.9952 114.513 88.9421 116.211 91.0367C122.587 98.694 129.855 105.563 137.86 111.497C147.785 118.961 158.373 123.425 170.03 126.523C177.511 129.153 185.459 130.193 193.366 129.577C200.512 129.092 206.776 126.049 212.941 122.753C224.058 116.822 235.914 116.227 248.089 117.902C249.942 118.156 251.794 118.905 250.471 121.143C247.648 125.884 237.292 140.061 233.807 144.294C230.322 148.527 225.503 149.806 220.011 148.296C216.57 147.337 213.007 146.763 209.567 145.782C207.14 145.099 205.387 145.198 204.306 147.899C203.548 149.406 202.678 150.854 201.703 152.231C198.726 157.247 195.759 162.263 192.66 167.5C193.288 167.756 193.943 167.941 194.612 168.051C205.949 167.841 217.298 167.963 228.414 165.196C232.717 164.202 236.511 161.679 239.09 158.096C246.104 148.593 259.139 128.915 263.837 118.156C265.867 113.493 263.981 109.193 259.426 106.955C258.074 106.331 256.657 105.854 255.202 105.533C248.045 103.791 240.865 102.05 233.708 100.44C231.215 99.8669 230.465 98.9409 231.359 96.2952C232.347 93.5934 232.851 90.7385 232.848 87.8617C232.662 83.2057 232.105 78.5719 231.182 74.0045C229.605 66.0561 232.175 58.3724 238.196 54.095C240.226 52.6399 242.067 52.1327 243.942 54.2935C247.703 58.6149 251.916 62.6387 255.191 67.3018C257.104 69.8897 258.266 72.9553 258.548 76.1608C258.83 79.3663 258.222 82.5874 256.79 85.4695L278.395 96.9786Z" fill="#C6B09A"/>
<path d="M405.696 296.206C406.056 296.857 406.639 297.356 407.339 297.611C408.038 297.866 408.805 297.86 409.501 297.595C413.272 296.702 417.066 295.853 420.871 295.125C431.05 293.185 441.251 291.575 451.75 293.086C453.25 293.306 454.96 292.568 456.482 291.983C459.272 291.002 461.996 289.9 464.753 288.742C467.861 287.567 470.893 286.197 473.829 284.641C475.417 283.726 476.531 283.462 478.163 284.322C479.889 285.296 481.746 286.017 483.678 286.46C488.332 287.331 492.842 287.111 497.033 283.153C492.324 281.081 488.089 279.173 483.799 277.354C483.264 277.17 482.788 276.847 482.42 276.417C484.064 270.954 485.136 265.335 485.619 259.65C488.707 223.965 474.844 187.817 453.085 160.058C447.394 152.805 446.975 166.022 447.041 169.208C447.218 178.116 450.14 189.415 455.699 196.515C465.701 209.27 470.609 222.003 469.517 234.989L463.518 241.603C462.863 236.384 461.585 231.262 459.713 226.346C455.015 215.598 445.839 210.99 435.131 208.542C426.308 206.525 421.047 204.452 412.103 204.386C407.241 204.41 402.387 203.989 397.601 203.129C390.377 201.718 382.404 195.06 378.312 186.979C381.147 174.216 386.246 162.063 393.366 151.096C394.149 149.861 379.029 144.217 377.926 143.82C375.952 143.125 362.707 137.801 361.251 140.072C355.934 148.497 351.643 157.527 348.469 166.97C344.444 178.744 343.462 190.121 344.058 202.192C343.867 210.124 345.331 218.009 348.359 225.343C351.039 231.957 355.858 236.995 360.898 241.879C369.986 250.621 374.21 261.722 376.338 273.794C376.669 275.635 376.526 277.63 373.989 277.101C368.607 275.888 351.932 270.431 346.793 268.425C341.654 266.419 338.952 262.24 338.72 256.552C338.577 252.98 338.025 249.419 337.882 245.848C337.794 243.323 337.143 241.692 334.254 241.493C332.583 241.259 330.935 240.891 329.324 240.391L311.998 236.51C311.946 237.187 311.975 237.869 312.087 238.539C315.781 249.254 319.178 260.08 325.243 269.792C327.518 273.578 331.093 276.407 335.301 277.751C346.506 281.477 369.247 287.783 380.948 288.93C385.999 289.415 389.517 286.306 390.234 281.268C390.391 279.802 390.391 278.324 390.234 276.858C389.683 269.516 389.131 262.174 388.447 254.81C388.216 252.264 388.866 251.271 391.657 251.305C394.536 251.407 397.411 251 400.149 250.103C404.52 248.497 408.754 246.54 412.809 244.249C419.878 240.291 427.984 240.358 433.929 244.756C435.925 246.233 436.983 247.832 435.506 250.268C432.55 255.185 429.991 260.421 426.606 264.985C424.737 267.606 422.181 269.659 419.219 270.92C416.257 272.18 413.005 272.599 409.82 272.129L405.696 296.206Z" fill="#C6B09A"/>
<path d="M209.313 443.917C210.372 443.197 211.279 442.275 211.982 441.205C212.623 440.385 213.174 439.498 213.625 438.559C214.519 436.644 214.979 434.555 214.97 432.441C214.97 428.373 211.11 425.595 207.625 424.261C205.212 423.287 202.567 423.042 200.016 423.556C198.837 423.829 197.717 424.311 196.707 424.978C190.388 430.104 191.932 436.145 191.932 436.145C191.97 436.859 192.077 437.568 192.252 438.262C192.679 439.912 193.506 441.433 194.66 442.688C195.814 443.944 197.26 444.896 198.869 445.46C202.078 446.475 205.585 445.659 208.64 444.259L209.313 443.917Z" fill="#C6B09A"/>
<path d="M54.2756 337.81C55.285 338.597 56.439 339.177 57.6723 339.519C60.6565 340.609 63.9221 340.655 66.9362 339.651C70.8072 338.373 72.2629 333.864 72.4504 330.138C72.6335 327.542 72.0465 324.949 70.763 322.685C70.1382 321.633 69.3316 320.7 68.3808 319.929C61.5432 315.52 56.2496 318.827 56.2496 318.827C54.3114 319.563 52.6371 320.861 51.4407 322.554C50.2443 324.246 49.5801 326.258 49.5333 328.33C49.5333 331.637 51.4303 334.779 53.7131 337.248L54.2756 337.81Z" fill="#C6B09A"/>
<path d="M107.355 157.578C106.924 158.782 106.733 160.059 106.793 161.337C106.754 162.379 106.832 163.421 107.024 164.446C107.419 166.521 108.271 168.483 109.517 170.189C111.943 173.497 116.674 173.497 120.281 172.493C122.821 171.869 125.122 170.512 126.898 168.591C127.704 167.669 128.342 166.613 128.784 165.471C130.879 157.6 126.071 153.62 126.071 153.62C125.623 153.068 125.124 152.559 124.582 152.099C123.258 151.014 121.687 150.272 120.008 149.937C118.329 149.603 116.593 149.686 114.954 150.181C111.767 151.283 109.44 153.973 107.763 156.905L107.355 157.578Z" fill="#C6B09A"/>
<path d="M295.202 152.364C293.924 152.322 292.65 152.532 291.453 152.981C290.451 153.273 289.483 153.668 288.563 154.16C286.712 155.181 285.111 156.601 283.876 158.317C281.505 161.624 282.972 166.122 284.979 169.252C286.363 171.458 288.359 173.212 290.725 174.301C291.851 174.78 293.053 175.056 294.276 175.117C302.415 174.687 304.709 168.889 304.709 168.889C305.857 167.16 306.457 165.125 306.429 163.05C306.402 160.974 305.748 158.956 304.554 157.258C302.558 154.557 299.228 153.157 295.941 152.496L295.202 152.364Z" fill="#C6B09A"/>
<path d="M358.208 329.333C357.849 328.101 357.254 326.952 356.454 325.948C355.868 325.092 355.195 324.298 354.447 323.578C352.905 322.131 351.058 321.046 349.043 320.403C345.161 319.169 341.323 321.958 338.985 324.813C337.316 326.806 336.266 329.243 335.963 331.824C335.855 333.046 335.96 334.276 336.272 335.462C339.206 343.058 345.426 343.455 345.426 343.455C346.113 343.646 346.819 343.764 347.532 343.807C349.242 343.91 350.951 343.59 352.507 342.875C354.063 342.159 355.419 341.071 356.454 339.706C358.395 336.973 358.66 333.379 358.318 330.049L358.208 329.333Z" fill="#C6B09A"/>
</g>
<defs>
<clipPath id="clip0_2_24">
<rect width="566" height="561.621" fill="white" transform="translate(-69)"/>
</clipPath>
</defs>
</svg>
