<svg width="173" height="109" viewBox="0 0 173 109" fill="none" xmlns="http://www.w3.org/2000/svg">
<path d="M35.481 70.2865C34.8091 68.9644 33.8338 68.2925 32.5334 68.2925C32.0123 68.291 31.4988 68.4175 31.038 68.661C30.5644 68.8991 30.1498 69.2396 29.8243 69.6579C29.4729 70.1066 29.2016 70.6125 29.0224 71.1534C28.8217 71.7469 28.7192 72.3691 28.7189 72.9956C28.7189 74.1443 29.0224 75.0329 29.6509 75.6831C30.2794 76.3333 31.1247 76.6368 32.23 76.6368C32.7084 76.644 33.1847 76.5708 33.6388 76.42C34.0589 76.2719 34.4536 76.0599 34.8091 75.7915V77.547C34.8091 77.8721 34.2673 78.1322 33.162 78.3056C32.0566 78.479 13.3092 78.5657 11.1419 78.5657H10.5567C9.73313 78.5657 9.14795 78.414 8.7795 78.1105C8.41105 77.8071 8.23767 77.287 8.25934 76.5717L8.36771 68.1191L6.39544 68.4659V69.983C4.37982 70.3948 2.81934 71.0667 1.69233 71.9553C0.565315 72.8439 0.00180775 73.9493 0.00180775 75.228C-0.00844915 75.7242 0.103179 76.2154 0.326907 76.6584C0.529225 77.0751 0.826091 77.4388 1.19384 77.7204C1.57948 78.0091 2.01208 78.2291 2.47257 78.3706C2.98619 78.5213 3.51948 78.5944 4.05472 78.5873C4.91817 78.6136 5.77242 78.4038 6.52547 77.9805C6.80723 79.8661 8.15097 80.798 10.535 80.798H11.1202C12.0088 80.798 29.8893 80.7764 30.5612 80.7547C31.233 80.733 31.8182 80.6897 32.3384 80.6246C32.8585 80.5596 33.292 80.4729 33.6821 80.3862C34.0406 80.2995 34.3892 80.176 34.7225 80.0178C35.3205 79.7646 35.8059 79.3024 36.0879 78.7174C36.3479 78.1539 36.478 77.3086 36.478 76.2033C36.478 73.5808 36.1529 71.6085 35.481 70.2865ZM33.7038 74.5561C33.2941 74.6683 32.8715 74.7266 32.4468 74.7295C31.7532 74.7295 31.2114 74.5778 30.8429 74.2527C30.6505 74.079 30.4998 73.8639 30.4022 73.6237C30.3046 73.3835 30.2626 73.1243 30.2794 72.8656C30.2647 72.2228 30.4887 71.5974 30.9079 71.1101C31.0945 70.8832 31.3297 70.7012 31.596 70.5774C31.8623 70.4536 32.1531 70.3912 32.4468 70.3948C32.758 70.3847 33.0661 70.4601 33.3375 70.613C33.6088 70.7658 33.833 70.9903 33.9856 71.2618C34.354 71.847 34.5707 72.7789 34.7008 74.0793C34.3978 74.2934 34.0607 74.4546 33.7038 74.5561ZM4.35814 76.3767C4.01658 76.381 3.67541 76.352 3.3395 76.29C3.03916 76.2355 2.74755 76.1407 2.47257 76.0082C2.23292 75.9029 2.02945 75.7296 1.88739 75.5097C1.73238 75.2882 1.65607 75.0211 1.67065 74.7512C1.67583 74.3761 1.81409 74.0151 2.06077 73.7325C2.35537 73.3979 2.70776 73.1189 3.10109 72.9089C3.58532 72.6566 4.09356 72.4533 4.61822 72.3021C5.20032 72.1388 5.79466 72.0228 6.39544 71.9553L6.43878 75.9649C5.78511 76.2571 5.07385 76.3979 4.35814 76.3767Z" fill="white"/>
<path d="M65.932 67.3608L64.3932 65.8003L62.8327 67.3608L64.3932 68.9429L65.932 67.3608Z" fill="white"/>
<path d="M69.5731 67.3608L68.0343 65.8003L66.4738 67.3608L68.0343 68.9429L69.5731 67.3608Z" fill="white"/>
<path d="M95.061 66.9706L93.5005 65.3884L91.9617 66.9706L93.5005 68.5311L95.061 66.9706Z" fill="white"/>
<path d="M95.321 71.7603L96.8815 70.1782L95.321 68.6177L93.7822 70.1782L95.321 71.7603Z" fill="white"/>
<path d="M93.2403 70.1782L91.6799 68.6177L90.1411 70.1782L91.6799 71.7603L93.2403 70.1782Z" fill="white"/>
<path d="M116.821 65.0199L116.886 77.2436C116.887 77.3573 116.865 77.4699 116.82 77.5744C116.775 77.6789 116.709 77.7729 116.626 77.8505C116.438 78.0345 116.207 78.1687 115.954 78.2406C115.653 78.3506 115.34 78.4234 115.022 78.4573C114.675 78.5007 97.2283 78.5223 96.8598 78.5223C94.8876 78.5223 93.8906 78.0022 93.8906 76.9835C93.8906 76.8535 93.9339 76.485 93.9989 75.8999C94.064 75.3147 94.1507 74.6862 94.2157 73.971L92.5252 73.7759C92.4818 73.9926 92.4601 74.2527 92.4168 74.5345C92.3735 74.8162 92.3518 75.098 92.2868 75.3797C92.2217 75.6615 92.1784 75.9432 92.135 76.225C92.0917 76.5067 92.0483 76.7235 92.005 76.9185C91.9527 77.19 91.8372 77.4453 91.6677 77.6637C91.4983 77.8821 91.2797 78.0575 91.0297 78.1756C90.5095 78.4356 72.6074 78.544 71.5021 78.544C71.0036 78.544 70.5267 78.544 70.0716 78.5223L68.8146 78.4573C69.2368 78.0702 69.5713 77.5973 69.7956 77.0702C70.0199 76.5431 70.1288 75.9741 70.115 75.4014C70.1147 74.8102 70.0121 74.2236 69.8115 73.6675C69.6134 73.1526 69.3274 72.6759 68.9663 72.2588C68.6113 71.8643 68.1847 71.5407 67.7092 71.3051C67.236 71.0768 66.7175 70.9583 66.1921 70.9583C65.6667 70.9583 65.1481 71.0768 64.675 71.3051C64.1984 71.539 63.7715 71.8628 63.4179 72.2588C63.0419 72.665 62.7541 73.1446 62.5726 73.6675C62.3618 74.2208 62.2588 74.8094 62.2692 75.4014C62.2532 75.9743 62.3611 76.544 62.5856 77.0714C62.81 77.5988 63.1457 78.0716 63.5696 78.4573C63.1448 78.5017 62.718 78.5234 62.2909 78.5223C61.8358 78.544 44.2587 78.544 43.7819 78.544C42.9583 78.544 42.3731 78.3923 42.0263 78.0889C41.6579 77.7855 41.4845 77.2653 41.4845 76.5501L41.5929 64.6948L39.6206 65.0415L39.729 77.287C39.7723 79.606 41.1161 80.7764 43.8036 80.7764C44.7355 80.7764 62.7677 80.7113 63.678 80.5596C64.5406 80.4174 65.3891 80.1999 66.2138 79.9094C67.0392 80.1972 67.8875 80.4147 68.7495 80.5596C69.6595 80.708 70.5801 80.7805 71.5021 80.7764C72.5424 80.7764 90.5746 80.6247 91.3331 80.3429C92.0014 80.1312 92.5758 79.6947 92.9586 79.1075C93.6088 80.2129 94.9092 80.7764 96.8598 80.7764C97.4884 80.7764 115.152 80.7114 115.716 80.5813C116.25 80.4708 116.758 80.2573 117.211 79.9528C117.655 79.664 118.02 79.2693 118.273 78.8041C118.566 78.2667 118.708 77.6601 118.685 77.0486L118.793 64.6731L116.821 65.0199ZM66.2138 77.9155C64.675 77.417 63.9164 76.5934 63.9164 75.4447C63.9174 75.1262 63.9762 74.8104 64.0898 74.5128C64.2017 74.2332 64.3632 73.9763 64.5666 73.7542C64.7741 73.5377 65.0253 73.3678 65.3035 73.2557C65.5936 73.1421 65.9022 73.0833 66.2138 73.0823C66.5183 73.0833 66.8198 73.1422 67.1024 73.2557C67.3806 73.3678 67.6317 73.5377 67.8393 73.7542C68.058 73.9772 68.2301 74.2415 68.3455 74.5318C68.4608 74.8221 68.5171 75.1324 68.5111 75.4447C68.5111 76.5934 67.7309 77.417 66.2138 77.9155Z" fill="white"/>
<path d="M122.066 80.7547L121.936 65.0199L123.908 64.6731L123.778 80.7547H122.066Z" fill="white"/>
<path d="M139.773 77.027C139.773 78.2191 139.383 79.1727 138.624 79.8879C137.866 80.6031 136.804 80.9499 135.482 80.9499C134.073 80.9499 132.989 80.6031 132.252 79.9096C131.515 79.216 131.147 78.2191 131.147 76.9187C131.137 76.1391 131.254 75.3632 131.494 74.6213C131.707 73.9425 132.021 73.2995 132.426 72.714C132.791 72.1954 133.255 71.7536 133.791 71.4136C134.291 71.099 134.87 70.9336 135.46 70.9368C136.057 70.9335 136.643 71.0988 137.15 71.4136C137.686 71.7536 138.15 72.1954 138.516 72.714C138.926 73.3011 139.234 73.9533 139.426 74.643C139.666 75.4147 139.783 76.2191 139.773 77.027ZM133.639 68.9429L132.101 67.3607L133.639 65.7786L135.178 67.3607L133.639 68.9429ZM138.082 77.2438C138.088 76.7029 138.023 76.1636 137.887 75.6399C137.777 75.1871 137.594 74.7552 137.346 74.3612C137.128 74.0288 136.849 73.7417 136.522 73.5159C136.21 73.321 135.85 73.216 135.482 73.2125C135.126 73.2143 134.776 73.3036 134.463 73.4726C134.134 73.6491 133.846 73.8928 133.618 74.1878C133.379 74.5047 133.189 74.8553 133.054 75.2281C132.914 75.64 132.841 76.0717 132.838 76.5069C132.838 77.2221 133.054 77.7639 133.509 78.1324C133.965 78.5008 134.615 78.6959 135.46 78.6959C135.795 78.6931 136.129 78.6568 136.457 78.5875C136.75 78.5325 137.029 78.4222 137.281 78.2624C137.496 78.1388 137.687 77.9773 137.844 77.7856C137.921 77.7184 137.983 77.6349 138.024 77.5413C138.065 77.4476 138.085 77.346 138.082 77.2438ZM137.281 68.9429L135.742 67.3607L137.281 65.7786L138.819 67.3607L137.281 68.9429Z" fill="white"/>
<path d="M139.079 83.7891C139.942 83.4805 140.777 83.0962 141.572 82.6404C142.276 82.2466 142.944 81.7895 143.566 81.275C144.068 80.8659 144.507 80.3837 144.866 79.8446C145.16 79.4486 145.327 78.9722 145.343 78.4792C145.326 78.1339 145.268 77.7919 145.17 77.4605C145.036 76.9969 144.877 76.5411 144.693 76.0951C144.476 75.5966 144.238 75.0981 143.956 74.5563C143.674 74.0144 143.371 73.516 143.046 73.0175L144.845 72.0205C145.549 72.9631 146.105 74.0084 146.492 75.1198C146.867 76.1339 147.072 77.2031 147.099 78.2841C147.099 79.8446 146.492 81.275 145.3 82.5971C144.108 83.9192 142.417 84.9595 140.228 85.7614L139.079 83.7891Z" fill="white"/>
<path d="M150.545 80.7547L150.415 65.0199L152.387 64.6731L152.257 80.7547H150.545Z" fill="white"/>
<path d="M153.622 83.7891C154.484 83.4763 155.317 83.0921 156.115 82.6404C156.819 82.2466 157.487 81.7895 158.109 81.275C158.611 80.8659 159.049 80.3837 159.409 79.8446C159.703 79.4486 159.87 78.9722 159.886 78.4791C159.869 78.1339 159.811 77.7919 159.712 77.4605C159.579 76.9969 159.42 76.5411 159.236 76.0951C159.019 75.5966 158.78 75.0981 158.499 74.5563C158.217 74.0144 157.914 73.516 157.588 73.0175L159.387 72.0205C160.092 72.9631 160.647 74.0084 161.034 75.1198C161.41 76.1339 161.615 77.2031 161.641 78.2841C161.641 79.8446 161.034 81.275 159.842 82.5971C158.65 83.9191 156.96 84.9595 154.771 85.7614L153.622 83.7891ZM158.195 70.0049L156.656 68.4227L158.195 66.8406L159.734 68.4227L158.195 70.0049Z" fill="white"/>
<path d="M164.914 83.7024C168.512 83.204 170.571 81.9036 171.134 79.7796C170.782 80.0425 170.386 80.2407 169.964 80.3648C169.506 80.4977 169.032 80.5634 168.555 80.5598C168.057 80.5772 167.561 80.4831 167.103 80.2844C166.646 80.0857 166.238 79.7873 165.911 79.4111C165.239 78.6526 164.914 77.6339 164.914 76.3985C164.911 75.7434 165.013 75.0921 165.217 74.4696C165.399 73.9122 165.678 73.3913 166.041 72.9308C166.377 72.4997 166.807 72.1513 167.298 71.9122C167.782 71.6684 168.317 71.5422 168.859 71.5437C170.159 71.5437 171.178 72.1289 171.893 73.2992C172.608 74.4696 172.976 76.1168 172.976 78.2624C172.986 79.2123 172.809 80.1548 172.456 81.0366C172.121 81.8738 171.628 82.639 171.004 83.2907C170.355 83.9564 169.592 84.4997 168.75 84.8945C167.82 85.3378 166.825 85.6304 165.803 85.7614L164.914 83.7024ZM168.88 78.5442C169.342 78.5432 169.802 78.4775 170.246 78.3491C170.619 78.2449 170.971 78.0762 171.286 77.8506C171.221 76.5286 170.983 75.5099 170.549 74.7947C170.116 74.0795 169.53 73.711 168.794 73.711C168.493 73.7026 168.194 73.7626 167.92 73.8865C167.646 74.0104 167.404 74.195 167.211 74.4263C166.8 74.9031 166.605 75.5316 166.605 76.3118C166.605 77.0054 166.8 77.5472 167.211 77.9373C167.623 78.3275 168.165 78.5442 168.88 78.5442Z" fill="white"/>
<path d="M0.673643 89.6409H2.71093L7.17564 97.2699L11.6403 89.6409H13.6126L14.3062 104.314H12.2255L11.7487 93.0436L7.6091 99.979H6.54711L2.47253 93.1303L1.97404 104.314H0.00177002L0.673643 89.6409Z" fill="white"/>
<path d="M17.9039 89.5759L19.4644 91.1364L17.9039 92.7186L16.3218 91.1364L17.9039 89.5759ZM16.9286 94.084H18.9009V104.314H16.9286V94.084Z" fill="white"/>
<path d="M21.7185 104.314V94.7341C21.7185 94.6041 21.7185 94.3873 21.6968 94.0839H23.5824L23.6474 95.6227C23.7774 95.4493 23.9508 95.2543 24.1242 95.0375C24.3303 94.8145 24.5632 94.618 24.8177 94.4524C25.1222 94.2652 25.4501 94.1194 25.793 94.0189C26.2018 93.9022 26.625 93.8438 27.0501 93.8455C28.3938 93.8455 29.3691 94.2356 30.0193 95.0159C30.6695 95.7961 30.9946 96.8581 30.9946 98.1802V104.314H29.0224V98.3319C29.0224 97.3782 28.8273 96.6847 28.4155 96.2296C28.0037 95.7744 27.4185 95.5577 26.6816 95.5577C26.1819 95.5381 25.6865 95.6582 25.2512 95.9045C24.8766 96.1272 24.5637 96.4402 24.3409 96.8147C24.1012 97.2085 23.9325 97.6413 23.8424 98.0935C23.7373 98.5776 23.6864 99.0719 23.6907 99.5673V104.314H21.7185Z" fill="white"/>
<path d="M34.419 89.5759L35.9795 91.1364L34.419 92.7186L32.8369 91.1364L34.419 89.5759ZM33.422 94.084H35.3943V104.314H33.422V94.084Z" fill="white"/>
<path d="M38.7103 101.735C39.0936 102.108 39.5415 102.409 40.0324 102.623C40.5971 102.849 41.2014 102.96 41.8096 102.948C42.3762 102.967 42.9397 102.856 43.4567 102.623C43.6534 102.542 43.8208 102.404 43.9369 102.226C44.053 102.048 44.1123 101.839 44.1069 101.626C44.1162 101.413 44.0635 101.203 43.9552 101.019C43.8354 100.831 43.6718 100.675 43.4784 100.564C43.1925 100.402 42.8864 100.278 42.5681 100.196C42.1997 100.087 41.7229 99.9573 41.181 99.8273C40.7826 99.7418 40.3914 99.6258 40.0107 99.4805C39.6369 99.338 39.2863 99.1408 38.9704 98.8953C38.6618 98.6516 38.4041 98.3497 38.2118 98.0067C38.0124 97.6263 37.9153 97.2006 37.93 96.7713C37.9155 96.3132 38.0361 95.861 38.2768 95.4709C38.5038 95.088 38.8151 94.7619 39.1871 94.5173C39.5783 94.2534 40.0104 94.0557 40.4658 93.9322C40.9463 93.8021 41.4419 93.7365 41.9396 93.7371C42.6986 93.7169 43.4549 93.8344 44.172 94.0839C44.7733 94.3014 45.3311 94.6243 45.8191 95.0375L44.7355 96.4029C44.3961 96.1008 44.0076 95.859 43.5868 95.6877C43.0695 95.4851 42.5166 95.3892 41.9613 95.4059C41.4387 95.3855 40.9187 95.4895 40.4442 95.7094C40.2588 95.8029 40.1059 95.9501 40.0054 96.1318C39.9049 96.3135 39.8614 96.5213 39.8806 96.728C39.8806 97.1615 40.1407 97.4866 40.6392 97.7033C41.2857 97.9611 41.9527 98.1641 42.6332 98.3102C43.0895 98.4183 43.5383 98.5559 43.9769 98.7219C44.371 98.8642 44.743 99.0612 45.0822 99.3071C45.3965 99.5449 45.6553 99.8481 45.8408 100.196C46.0325 100.594 46.1289 101.032 46.1226 101.474C46.137 101.946 46.0167 102.412 45.7758 102.818C45.5392 103.214 45.2124 103.548 44.8222 103.794C44.4041 104.066 43.9422 104.264 43.4567 104.379C42.9321 104.509 42.3935 104.574 41.8529 104.574C39.924 104.574 38.4719 104.054 37.4966 103.013L38.7103 101.735Z" fill="white"/>
<path d="M49.3303 95.731H47.488V94.0838H49.3303V90.7461H51.3025V94.0838H54.2935V95.731H51.3025V100.781C51.3025 101.604 51.4326 102.168 51.6927 102.471C51.8278 102.623 51.9953 102.743 52.1828 102.822C52.3704 102.901 52.5732 102.936 52.7763 102.926C53.1026 102.934 53.427 102.875 53.7299 102.753C54.0037 102.612 54.2586 102.438 54.4885 102.233L55.3988 103.447C55.0212 103.827 54.5718 104.129 54.0767 104.335C53.5642 104.528 53.0203 104.623 52.4729 104.617C51.3892 104.617 50.5873 104.314 50.0888 103.728C49.5903 103.143 49.3303 102.233 49.3303 100.976V95.731Z" fill="white"/>
<path d="M57.0676 104.314V94.7342C57.0676 94.6041 57.0676 94.3874 57.046 94.1056H58.9315L58.9966 95.7528C59.1384 95.5502 59.2903 95.3549 59.4517 95.1676C59.6578 94.9446 59.8907 94.7481 60.1452 94.5824C60.4457 94.3966 60.7654 94.244 61.0989 94.1273C61.4965 93.9924 61.9144 93.9264 62.3343 93.9322C62.5372 93.9343 62.7399 93.9488 62.9411 93.9756C63.119 93.9984 63.2936 94.042 63.4613 94.1056L63.0278 95.9479C62.701 95.8331 62.3553 95.7816 62.0092 95.7961C61.6067 95.7933 61.2081 95.8746 60.8388 96.0346C60.4869 96.195 60.1702 96.4233 59.9068 96.7064C59.6406 96.9994 59.4279 97.3369 59.2783 97.7034C59.1224 98.0891 59.0415 98.5011 59.0399 98.9171V104.314H57.0676Z" fill="white"/>
<path d="M65.4769 106.828C65.6342 106.956 65.8008 107.071 65.9754 107.174C66.197 107.285 66.4432 107.337 66.6906 107.326C66.9033 107.335 67.1141 107.283 67.2974 107.174C67.4854 107.055 67.6416 106.891 67.7526 106.698C67.9042 106.457 68.0347 106.203 68.1427 105.939C68.2727 105.636 68.4028 105.289 68.5762 104.899L68.8363 104.249L64.2632 94.1055H66.5389L69.8332 101.821L72.7375 94.1055H74.8831L70.7869 104.075C70.5918 104.552 70.3967 105.072 70.2017 105.636C70.0047 106.191 69.758 106.728 69.4648 107.24C69.1871 107.724 68.8192 108.151 68.3811 108.497C67.9221 108.847 67.354 109.023 66.7773 108.995C66.3336 109.012 65.8911 108.938 65.4769 108.778C65.1359 108.646 64.8205 108.455 64.5449 108.215L65.4769 106.828Z" fill="white"/>
<path d="M84.6361 104.617C83.8848 104.62 83.1405 104.473 82.4471 104.184C81.8039 103.912 81.2218 103.514 80.7349 103.013C80.2589 102.507 79.8773 101.92 79.6078 101.279C79.0588 99.9316 79.0588 98.4225 79.6078 97.0748C79.8692 96.4301 80.2518 95.8415 80.7349 95.3409C81.2178 94.8357 81.801 94.4371 82.4471 94.1705C83.1376 93.8843 83.8777 93.7371 84.6252 93.7371C85.3727 93.7371 86.1129 93.8843 86.8034 94.1705C87.4465 94.4425 88.0287 94.8404 88.5156 95.3409C88.9987 95.8415 89.3812 96.4301 89.6426 97.0748C90.1917 98.4225 90.1917 99.9316 89.6426 101.279C89.3732 101.92 88.9915 102.507 88.5156 103.013C88.0287 103.514 87.4465 103.912 86.8034 104.184C86.1213 104.485 85.3815 104.633 84.6361 104.617ZM84.6361 102.905C85.1318 102.91 85.6219 102.799 86.0665 102.58C86.4803 102.373 86.8487 102.085 87.1502 101.735C87.4526 101.387 87.6812 100.981 87.822 100.542C88.1399 99.66 88.1399 98.6942 87.822 97.8117C87.6725 97.3767 87.4448 96.9728 87.1502 96.6196C86.8487 96.2687 86.4803 95.9813 86.0665 95.7744C85.6235 95.5506 85.1323 95.439 84.6361 95.4493C84.1403 95.4437 83.6502 95.5551 83.2056 95.7744C82.7918 95.9813 82.4234 96.2687 82.122 96.6196C81.8195 96.9673 81.591 97.3729 81.4501 97.8117C81.2956 98.2579 81.215 98.7265 81.2117 99.1987C81.2134 99.6641 81.294 100.126 81.4501 100.564C81.6045 100.997 81.8317 101.4 82.122 101.756C82.4264 102.126 82.811 102.421 83.2465 102.62C83.6821 102.819 84.1573 102.917 84.6361 102.905Z" fill="white"/>
<path d="M93.067 95.731H91.2247V94.0839H93.067V93.2386C93.0579 92.6255 93.1607 92.0159 93.3704 91.4397C93.5419 90.9782 93.8076 90.5575 94.1506 90.2044C94.4702 89.8873 94.8547 89.6433 95.2776 89.4891C95.7085 89.333 96.1631 89.2524 96.6214 89.2507C97.1665 89.2507 97.7081 89.3385 98.2252 89.5108C98.7606 89.6897 99.2493 89.9859 99.6557 90.3777L98.6587 91.6565C98.1807 91.2306 97.5649 90.992 96.9248 90.9846C96.6721 90.9755 96.4203 91.019 96.1853 91.1122C95.9502 91.2055 95.7371 91.3465 95.5594 91.5264C95.2126 91.8949 95.0392 92.5234 95.0392 93.412V94.0622H97.9651V95.7094H95.0392V104.292H93.067V95.731Z" fill="white"/>
<path d="M117.038 101.734C116.823 102.067 116.568 102.373 116.279 102.645C115.903 103.007 115.489 103.327 115.044 103.598C113.919 104.3 112.619 104.668 111.294 104.66C110.277 104.67 109.268 104.479 108.325 104.097C107.451 103.726 106.661 103.18 106.006 102.493C105.345 101.792 104.83 100.967 104.489 100.066C103.766 98.1073 103.766 95.9554 104.489 93.9971C104.84 93.0879 105.354 92.2506 106.006 91.5263C106.682 90.7898 107.507 90.2058 108.426 89.8134C109.346 89.421 110.338 89.2292 111.338 89.2507C112.049 89.238 112.757 89.333 113.44 89.5324C114.007 89.7097 114.552 89.9496 115.065 90.2476C115.497 90.5122 115.897 90.8249 116.257 91.1796C116.558 91.4762 116.826 91.803 117.059 92.1549L115.564 93.4336C115.391 93.1952 115.174 92.9351 114.935 92.6533C114.682 92.3686 114.39 92.1206 114.068 91.9165C113.704 91.6844 113.311 91.5022 112.898 91.3746C112.408 91.2192 111.895 91.146 111.381 91.1579C110.633 91.1447 109.893 91.3003 109.214 91.613C108.588 91.9106 108.034 92.3393 107.588 92.8701C107.132 93.4121 106.786 94.0379 106.569 94.7123C106.332 95.4397 106.215 96.2011 106.223 96.9663C106.22 97.7258 106.344 98.4804 106.591 99.1987C106.817 99.8627 107.162 100.48 107.61 101.019C108.05 101.535 108.598 101.949 109.214 102.233C109.883 102.526 110.607 102.674 111.338 102.666C111.919 102.678 112.498 102.59 113.05 102.406C113.481 102.262 113.889 102.057 114.264 101.799C114.561 101.589 114.837 101.349 115.087 101.084C115.304 100.846 115.477 100.651 115.629 100.477L117.038 101.734Z" fill="white"/>
<path d="M119.097 94.084H121.069V100.087C121.069 101.063 121.264 101.756 121.654 102.19C122.044 102.623 122.629 102.84 123.366 102.84C123.866 102.86 124.361 102.739 124.797 102.493C125.162 102.258 125.472 101.948 125.707 101.583C125.947 101.189 126.115 100.756 126.205 100.304C126.3 99.8185 126.351 99.3252 126.357 98.8304V94.084H128.329V103.685C128.325 103.895 128.333 104.105 128.351 104.314H126.466L126.401 102.797C126.27 102.97 126.097 103.165 125.924 103.36C125.708 103.575 125.468 103.764 125.208 103.924C124.9 104.102 124.573 104.247 124.233 104.357C123.825 104.475 123.401 104.534 122.976 104.531C121.632 104.531 120.657 104.14 120.029 103.382C119.4 102.623 119.075 101.561 119.075 100.218V94.084H119.097Z" fill="white"/>
<path d="M133.054 89.6409H131.082V104.314H133.054V89.6409Z" fill="white"/>
<path d="M136.652 95.731H134.81V94.0838H136.652V90.7461H138.624V94.0838H141.615V95.731H138.624V100.781C138.624 101.604 138.754 102.168 139.014 102.471C139.15 102.623 139.317 102.743 139.505 102.822C139.692 102.901 139.895 102.936 140.098 102.926C140.424 102.934 140.749 102.875 141.052 102.753C141.325 102.612 141.58 102.438 141.81 102.233L142.721 103.447C142.347 103.822 141.906 104.123 141.42 104.335C140.908 104.528 140.364 104.623 139.816 104.617C138.733 104.617 137.931 104.314 137.432 103.728C136.934 103.143 136.674 102.233 136.674 100.976V95.731H136.652Z" fill="white"/>
<path d="M143.934 94.084H145.907V100.087C145.907 101.063 146.102 101.756 146.492 102.19C146.882 102.623 147.467 102.84 148.204 102.84C148.704 102.86 149.199 102.739 149.634 102.493C149.999 102.258 150.31 101.948 150.545 101.583C150.784 101.189 150.953 100.756 151.043 100.304C151.138 99.8185 151.188 99.3252 151.195 98.8304V94.084H153.167V103.685C153.163 103.895 153.17 104.105 153.189 104.314H151.303L151.238 102.797C151.108 102.97 150.935 103.165 150.761 103.36C150.546 103.575 150.306 103.764 150.046 103.924C149.737 104.102 149.41 104.247 149.071 104.357C148.662 104.475 148.239 104.534 147.814 104.531C146.47 104.531 145.495 104.14 144.866 103.382C144.238 102.623 143.913 101.561 143.913 100.218V94.084H143.934Z" fill="white"/>
<path d="M155.92 104.314V94.7342C155.92 94.6041 155.92 94.3874 155.898 94.1056H157.784L157.849 95.7528C157.99 95.5502 158.142 95.3549 158.304 95.1676C158.51 94.9446 158.743 94.7481 158.997 94.5824C159.298 94.3966 159.617 94.244 159.951 94.1273C160.349 93.9924 160.766 93.9264 161.186 93.9322C161.389 93.9343 161.592 93.9488 161.793 93.9756C161.971 93.9984 162.146 94.042 162.313 94.1056L161.88 95.9479C161.553 95.8331 161.207 95.7816 160.861 95.7961C160.459 95.7933 160.06 95.8746 159.691 96.0346C159.339 96.195 159.022 96.4233 158.759 96.7064C158.493 96.9994 158.28 97.3369 158.13 97.7034C157.974 98.0891 157.893 98.5011 157.892 98.9171V104.314H155.92Z" fill="white"/>
<path d="M172.716 102.818C172.553 102.995 172.379 103.161 172.196 103.317C171.918 103.548 171.612 103.745 171.286 103.902C170.862 104.108 170.419 104.275 169.964 104.4C169.397 104.546 168.815 104.619 168.23 104.617C167.482 104.626 166.74 104.493 166.041 104.227C165.397 103.989 164.818 103.603 164.351 103.1C163.871 102.605 163.502 102.014 163.267 101.366C162.999 100.645 162.866 99.8811 162.877 99.1121C162.874 98.395 162.998 97.6831 163.245 97.0098C163.479 96.379 163.84 95.8034 164.307 95.3193C164.77 94.8408 165.322 94.4579 165.933 94.1923C166.622 93.9065 167.363 93.7667 168.109 93.7816C168.855 93.7965 169.59 93.9659 170.267 94.279C170.881 94.6055 171.414 95.0645 171.828 95.6227C172.24 96.1979 172.541 96.8447 172.716 97.53C172.91 98.2655 173.005 99.0235 172.998 99.784H164.914C164.925 100.22 165.028 100.648 165.217 101.041C165.4 101.416 165.65 101.754 165.954 102.038C166.261 102.324 166.622 102.545 167.016 102.688C167.417 102.844 167.843 102.925 168.273 102.927C168.89 102.956 169.505 102.855 170.08 102.631C170.655 102.407 171.177 102.065 171.611 101.626L172.716 102.818ZM170.939 98.3102C170.897 97.5614 170.598 96.8498 170.094 96.2946C169.595 95.7311 168.902 95.4493 167.992 95.4493C167.561 95.4448 167.134 95.5258 166.735 95.6877C166.378 95.8325 166.054 96.0461 165.781 96.3163C165.516 96.5728 165.309 96.8832 165.174 97.2265C165.021 97.5599 164.94 97.9217 164.936 98.2885H170.939V98.3102Z" fill="white"/>
<path d="M137.02 6.74036C135.937 21.3915 137.259 35.9777 136.912 50.7589C136.847 53.468 137.194 56.3722 136.977 59.1031C136.955 59.4282 136.869 59.6666 136.37 59.6883C135.702 59.5907 135.023 59.5907 134.355 59.6883C134.138 57.7377 134.225 56.2205 134.051 54.53C133.661 50.8456 133.878 47.8546 133.856 43.8451C133.813 36.9746 133.228 29.9958 133.726 23.1471C133.899 20.1881 133.921 17.2222 133.791 14.261C133.661 11.7686 133.531 9.92633 133.683 6.76203C134.79 6.61429 135.911 6.60701 137.02 6.74036Z" fill="white"/>
<path d="M15.4115 2.60086C16.6036 2.70923 17.1454 3.07767 17.2321 4.42142C17.3621 6.43704 17.0804 7.5207 17.2971 9.49297C18.0123 16.0383 16.4735 22.692 17.1671 29.259C17.5355 32.7268 17.1887 35.8477 17.2971 39.3155C17.4705 44.4954 17.2538 50.3688 17.1237 56.4374H0.977093C0.413587 55.6355 0.521954 51.6042 0.695341 50.5422C0.825603 49.6164 0.869139 48.6803 0.82538 47.7464C0.782034 43.9319 1.02044 40.5292 0.998766 36.7147C0.977092 34.4823 0.95542 32.2283 0.586974 30.0176C0.261874 28.067 0.760361 24.6426 0.478608 22.6704C0.110161 20.1996 -0.0848986 5.50508 0.0451413 2.68755C0.0451413 2.68755 13.5043 2.42748 15.4115 2.60086Z" fill="white"/>
<path d="M44.9956 6.04696C44.0636 5.70019 44.2153 6.80553 44.2153 7.36904C44.2153 7.93254 44.2153 8.23597 44.1937 8.95119C44.172 10.36 44.302 14.2395 44.302 15.6266C44.3237 17.9673 44.4754 20.0262 44.4321 21.8685C44.3454 25.3362 44.3454 28.8256 44.4754 32.315C44.8222 40.9627 44.4104 49.6537 44.6705 58.258C44.6921 58.9949 45.169 59.2116 45.8408 59.385L46.8378 59.5584C46.7945 52.1895 47.3796 44.4521 46.9245 37.1048C46.7294 34.0272 46.8378 30.9713 46.8378 27.8937C46.8378 24.9461 46.8161 21.9985 46.8595 19.051C46.9028 17.2521 46.8812 15.4749 46.8161 13.676C46.7511 11.4653 46.8595 7.19565 46.2743 6.61047C45.9709 6.24202 45.6024 6.2637 44.9956 6.04696Z" fill="white"/>
<path d="M29.0657 53.4898C30.041 53.4681 29.8459 52.7312 29.8459 52.146C29.8459 51.6042 29.976 51.2791 29.976 50.5639C29.9976 49.1334 29.911 45.2323 29.8893 43.8235C29.8676 41.4611 29.7376 39.4021 29.7809 37.5382C29.8676 34.0272 29.911 30.5161 29.7809 27.005C29.4775 18.2707 29.9326 9.51464 29.7159 0.845315C29.6942 0.0867491 29.1957 0.0650751 28.3505 0.0217285L27.1801 0.0650745C27.1801 7.49902 27.2668 15.4098 27.3535 23.3205C27.3968 26.4198 27.3535 28.8256 27.3535 31.9248C27.3535 34.8941 27.4185 37.2781 27.3968 40.2474C27.3968 41.8295 27.3318 43.5634 27.3102 45.7524C27.2885 47.9848 27.1801 52.2111 27.7003 52.8829C28.0904 53.3597 28.4588 53.4898 29.0657 53.4898Z" fill="white"/>
<path d="M50.2839 58.041C49.3953 57.9327 49.2652 57.5209 49.2869 56.5022C49.3736 53.468 49.1786 46.966 48.8535 42.9998C48.564 39.3888 48.6439 35.7578 49.0919 32.1631C49.3953 29.6924 48.9618 27.8718 48.9618 24.8159C48.9401 20.8063 49.1786 17.6637 49.1786 14.9545C49.1569 13.2857 49.1135 11.6168 49.0268 9.94797C48.9618 8.38749 48.9835 4.94143 48.9835 4.57299C49.2436 4.48629 50.1755 4.50796 50.4139 4.52964C51.0708 4.55975 51.7136 4.72969 52.2995 5.02812C52.668 6.61027 52.5596 9.96964 52.5596 11.8552C52.5596 12.9606 52.4946 17.512 52.5596 18.5956C52.6896 20.4162 52.6246 22.2584 52.6246 24.079C52.6463 26.398 52.7763 28.7387 52.7763 31.0578C52.7763 34.0053 52.5379 36.9529 52.4512 39.9005C52.3212 45.3405 53.0147 52.3626 52.9497 56.914C52.928 57.8243 53.0364 58.3011 52.0828 58.3011C52.1045 58.2578 51.1942 58.1494 50.2839 58.041Z" fill="white"/>
<path d="M132.036 55.5486C132.209 53.2946 131.732 49.8052 131.732 47.9846C131.732 46.9226 131.602 42.5229 131.667 41.461C131.776 39.7054 131.689 37.9282 131.689 36.151C131.689 33.897 131.819 31.6429 131.797 29.3889C131.776 26.528 131.494 23.6888 131.385 20.828C131.169 14.8895 132.057 6.97871 131.689 2.77409C130.193 2.44899 128.351 2.3623 126.336 2.40564C125.837 5.72166 125.967 9.03767 126.032 13.0689C126.075 15.6914 125.837 18.7256 125.902 22.6268C125.945 25.5744 126.704 29.1072 126.401 31.5129C125.963 34.993 125.905 38.5102 126.227 42.0028C126.704 46.9876 126.531 55.1585 126.596 55.2669L132.036 55.5486Z" fill="white"/>
<path d="M147.749 55.6787C147.987 49.5235 147.944 45.8174 148.052 40.5074C148.117 36.7579 147.532 32.0115 147.597 28.0669C147.727 20.828 147.814 18.3573 147.229 11.6169C147.099 10.0998 147.315 7.26055 147.25 5.74342C147.207 4.72477 147.164 3.42437 147.142 2.40573C147.142 2.40573 152.105 3.46772 155.963 2.6658C162.096 1.3654 172.24 2.70915 172.24 2.70915C172.846 3.74947 172.933 6.13354 172.911 6.71872C172.803 11.1617 172.716 9.60126 172.868 14.0226C173.02 18.2056 172.24 21.9117 172.24 27.8068C172.24 31.6864 172.825 34.2438 172.955 36.8229C173.085 39.4888 172.63 41.7211 172.803 45.9257C172.911 48.5265 172.846 55.3536 172.89 55.9822C172.89 55.9822 154.619 56.0905 150.718 55.6137C148.659 55.3536 147.749 55.6787 147.749 55.6787Z" fill="white"/>
<path d="M114.329 0.151649C114.437 9.34113 114.502 19.5276 114.957 27.8068C115.109 30.581 115.022 34.0487 115.13 37.1913C115.174 38.6001 114.935 41.396 114.827 43.2599C114.74 44.777 114.784 46.2941 114.805 47.7896C114.849 49.3934 114.87 52.7528 114.74 52.8178C113.756 52.666 112.755 52.666 111.771 52.8178C111.424 51.5824 111.663 50.4337 111.684 49.155C111.879 38.1233 111.099 30.0825 111.294 19.9394C111.359 16.645 111.251 12.137 110.991 8.86432C110.781 5.90936 110.854 2.94112 111.208 -6.34625e-05C112.25 -0.0057099 113.292 0.0449342 114.329 0.151649Z" fill="white"/>
<path d="M144.996 0.650105C145.278 5.39656 145.061 8.51752 145.148 12.5921C145.235 16.1682 145.625 19.2241 145.408 23.3204C145.213 26.8531 145.581 30.4076 145.668 33.962C145.733 37.408 145.798 40.8758 145.841 44.3218C145.907 46.9877 145.972 49.4151 145.972 52.1026C145.972 52.5577 145.928 53.5113 145.928 53.9665C145.313 53.8624 144.687 53.8333 144.064 53.8798C142.466 54.036 140.854 53.9703 139.274 53.6847C138.711 53.5547 139.188 44.2135 139.209 43.3465C139.274 39.8355 139.274 36.3244 139.274 32.8133C139.253 29.2589 138.928 25.4877 138.863 21.955C138.798 18.3572 138.993 14.9978 138.906 11.4217C138.819 7.80229 138.711 4.72469 138.603 1.10524C138.581 0.36835 139.274 -0.0217693 140.445 0.30333C141.962 0.69345 143.587 0.194965 144.996 0.650105Z" fill="white"/>
<path d="M23.344 5.09329C24.4276 5.245 25.2295 6.26365 25.2512 7.47735C25.2729 9.21122 25.2512 10.75 25.2079 12.2672C25.1645 13.9577 25.0995 15.6048 25.1428 17.4471C25.2295 24.946 25.5546 32.0982 25.2295 39.8573C24.9478 46.4243 25.5546 52.8396 25.4896 58.8648C23.4957 58.7564 21.1116 58.5614 19.1827 58.4747C19.7245 47.3563 19.3777 36.823 19.2477 25.2495C19.1827 18.7475 20.2447 13.6542 19.3344 4.98492C20.6703 4.85696 22.0169 4.89336 23.344 5.09329Z" fill="white"/>
<path d="M109.3 29.8007C109.17 25.8345 109.192 18.3572 109.495 14.3693C109.82 9.94795 108.737 3.2509 106.288 3.38094C104.164 3.27258 101.823 3.51098 99.6773 3.61934C97.9651 3.70604 95.7761 3.70604 94.0639 3.85775C91.138 4.11783 90.8129 3.72771 87.8654 3.72771C84.1809 3.72771 81.0166 4.03114 77.3321 4.03114C73.7777 4.03114 69.8115 3.94445 66.2571 3.66269C62.7677 3.40261 59.0615 2.90413 55.5938 3.01249C55.0953 3.03417 54.8136 5.26652 54.7052 8.04071C54.6185 10.7065 54.4451 16.45 54.6618 19.2025C56.2873 17.2085 58.3246 16.4499 60.3186 16.2549C61.9224 16.1032 63.7863 16.0165 65.5202 16.2766C65.6936 16.2982 64.3932 15.0629 63.3095 14.2176C62.7027 13.7408 62.0308 13.2423 61.2722 13.1339C60.3403 13.0039 59.365 13.0906 58.4113 13.0256C59.1049 12.4187 60.3186 10.9016 63.2878 11.2917C64.8917 11.5084 67.5791 14.3043 68.5544 13.5457C69.6381 12.7005 69.2046 9.38445 70.6351 9.016C71.8054 8.71258 72.564 13.1556 73.1275 14.1309C74.4279 12.4621 76.3785 11.27 78.4808 11.0316C79.5862 10.9016 82.9672 11.3134 83.4223 12.9172C83.4223 12.8955 79.1093 12.137 76.4435 15.9948C80.2364 14.4993 84.0725 14.9978 87.3019 17.4686C88.0996 18.1083 88.8005 18.8602 89.3825 19.7009C90.2494 20.8713 90.1411 21.3915 90.1194 22.0633C88.7106 21.7816 87.4102 19.3542 84.9828 18.6173C82.9455 17.9888 80.7565 18.1188 78.7192 18.7256C83.3356 19.4842 89.7293 25.6178 87.5186 30.6676C86.8034 32.2931 86.6083 31.2095 86.3482 29.8441C86.148 28.5273 85.6187 27.2824 84.8094 26.2246C84.1481 25.3099 83.4006 24.4608 82.5771 23.6888C81.8402 22.9736 79.5645 21.9766 78.5025 22.0417C81.4717 22.8869 83.4007 28.8037 83.6391 29.4323C84.2676 30.9711 84.2459 32.7266 84.2893 34.3521C84.3109 35.2841 84.3976 38.5567 83.2056 38.8602C83.2273 38.8602 83.4007 30.9494 77.8089 26.4197C79.2611 28.9771 79.3911 32.1198 79.2177 34.9806C79.131 36.5845 78.8709 37.8849 78.1557 39.337C78.004 39.6621 77.4188 41.1142 77.1804 41.1575C76.4435 41.3309 76.8336 36.7362 76.7253 35.9126C76.5952 34.9156 74.7747 28.1102 72.8674 29.779C71.8921 30.6243 72.3906 34.4388 72.5207 36.151C72.6724 38.2316 72.9108 41.2876 72.9541 43.3682C73.0408 47.7029 73.1492 50.7588 73.7127 55.1151C78.6976 52.4276 100.588 41.2225 103.709 50.4771C103.73 50.7805 103.535 50.5637 103.535 50.5637C101.39 47.3561 95.5594 49.0033 92.6335 49.9135C87.4319 51.5174 82.447 54.0531 77.7439 56.7406C85.4813 56.7623 97.4233 56.7406 106.266 56.7406C106.749 56.74 107.228 56.6422 107.672 56.4531C108.117 56.2639 108.519 55.9871 108.855 55.6393C109.191 55.2915 109.453 54.8798 109.626 54.4286C109.8 53.9774 109.88 53.4959 109.864 53.0128C109.82 51.5174 109.777 49.7185 109.777 47.7896C109.777 45.6006 109.885 43.2382 109.95 41.0492C110.037 36.7362 109.452 34.157 109.3 29.8007ZM65.8453 34.3521C65.5368 35.5157 65.2908 36.695 65.1084 37.8849C65.0434 38.3833 64.6532 41.0708 64.6532 41.0708C64.4845 40.9441 64.3565 40.7708 64.2848 40.5723C63.1795 38.0799 63.3962 34.1354 63.3962 34.1137C63.7863 27.9151 65.997 26.2463 65.997 26.268C65 25.7045 63.0061 28.0452 61.9441 29.519C60.5353 31.4912 60.7737 32.835 60.6003 35.9126C59.8418 35.7609 59.1049 34.5038 59.0615 33.5719C58.8015 28.7387 60.9471 24.3174 63.2662 22.4968C63.5262 22.2584 60.6003 22.8436 60.0802 23.0386C58.1729 23.8189 56.8075 25.1843 55.8756 27.0049C53.9033 30.8194 55.1603 35.3708 54.9003 39.5537C54.7485 41.9594 55.0953 44.3435 55.0736 46.7492C55.052 48.5698 54.5968 48.9166 56.4174 49.0683C57.1384 49.1342 57.8549 49.2427 58.563 49.3934C62.8544 50.3253 66.2787 52.2976 69.2913 55.4186C69.7681 49.8485 69.8332 44.7119 69.8332 39.1202C69.8332 36.9096 70.2016 32.1631 68.7278 30.2775C67.254 28.3919 66.1921 33.0951 65.8453 34.3521ZM55.3554 50.6288C55.247 52.7961 55.3987 54.53 55.4204 57.0657C57.5444 56.914 58.8231 57.1091 60.9471 57.2391C62.9844 57.3692 65.1517 57.1524 67.189 57.4125C64.0681 54.0315 60.0802 51.0406 55.3554 50.6288ZM58.8448 20.7629C59.6034 20.2428 62.746 18.6606 63.1144 18.6823C60.8604 17.8154 58.1513 18.0321 56.179 19.2892C54.2501 20.5029 54.9003 23.8839 54.6402 26.0512C55.5938 24.1223 57.0242 21.9766 58.8448 20.7629Z" fill="white"/>
<path d="M122.759 4.37797C122.897 4.40027 123.022 4.46789 123.117 4.57003C123.211 4.67217 123.268 4.80293 123.28 4.94148C123.431 10.9667 123.561 16.385 123.951 22.6269C124.103 25.0977 124.233 28.7388 123.865 31.643C123.388 35.4575 124.363 38.5568 124.103 42.393C123.756 47.4645 124.493 51.6041 124.212 56.6757L117.926 56.8057C117.406 56.8274 116.929 56.3289 117.016 55.1152C117.103 53.9015 116.994 48.6999 116.994 44.777C116.994 40.8542 117.514 37.2347 117.081 32.8567C116.864 30.7111 117.384 28.4137 117.254 26.268C117.038 22.3668 116.908 18.9424 116.821 15.0412C116.778 12.7222 116.821 9.18945 116.756 6.91375C116.713 5.3316 117.059 4.16124 117.926 3.77112C118.88 3.33765 121.632 4.22625 122.759 4.37797Z" fill="white"/>
<path d="M31.9916 50.5639C31.9266 52.016 31.9049 52.5361 31.9049 53.078C31.9049 53.4464 32.23 53.5114 32.5334 53.6631C32.7285 53.7715 34.419 54.1183 34.9825 54.2483C35.5246 54.3596 36.0763 54.4176 36.6297 54.4217C38.2552 54.4 39.8807 54.9635 41.5062 54.8118C41.5591 54.8076 41.6107 54.7928 41.6579 54.7685C41.7879 54.6818 42.2431 54.4651 42.3731 53.5548C42.5682 52.1677 42.178 50.954 42.3948 48.4399C42.6115 45.9258 42.4164 39.0987 42.4381 37.4515C42.5465 25.011 41.8313 24.816 42.1564 15.2147C42.2647 11.8336 42.178 10.7066 41.8096 7.15221C41.7229 6.22026 41.2894 3.8362 41.5062 2.18903C41.5929 1.58217 41.2244 1.08368 40.6392 1.06201C37.9517 0.931971 32.295 1.34376 32.295 1.34376C31.9916 2.60082 31.9266 3.79285 32.0132 5.46169C32.0566 6.63205 31.8399 8.56098 31.8399 9.73134C31.8399 11.0534 31.7532 12.3755 31.8182 13.6975C31.9699 17.252 32.0783 20.8064 31.9699 24.3391C31.6881 33.3336 32.4901 38.5568 32.1433 47.3779L31.9916 50.5639Z" fill="white"/>
</svg>
