<svg width="218" height="14" viewBox="0 0 218 14" fill="none" xmlns="http://www.w3.org/2000/svg">
<g clip-path="url(#clip0_6_12)">
<path d="M193.896 4.41866C192.789 2.87682 191.438 1.52575 189.896 0.418609C189.708 0.27586 189.507 0.150879 189.296 0.0452728C189.096 0.0452728 189.082 0.045272 188.909 0.231941L188.562 0.551952L187.229 1.8853L184.429 4.45866C184.395 4.60335 184.395 4.75398 184.429 4.89867C184.429 5.232 184.429 5.60534 184.509 5.60534C187.665 5.81867 190.833 5.81867 193.989 5.60534C194.076 5.21451 194.076 4.80949 193.989 4.41866M193.989 8.6587C194.019 8.41574 193.991 8.16922 193.909 7.9387C190.752 7.73205 187.586 7.73205 184.429 7.9387C184.349 8.32575 184.349 8.72501 184.429 9.11206C185.529 10.6601 186.881 12.0123 188.429 13.1121C188.61 13.2684 188.812 13.3985 189.029 13.4988C189.229 13.4988 189.242 13.4988 189.429 13.2988L189.762 12.9921C190.216 12.5654 190.669 12.1387 191.096 11.6587L193.896 9.07206C193.93 8.92743 193.93 8.77668 193.896 8.63205" fill="#6B4E45"/>
<path d="M217.056 11.4854C217.003 11.3421 216.916 11.2139 216.803 11.1121C216.356 9.45784 216.101 7.75779 216.043 6.04535C215.82 4.86379 215.401 3.72796 214.803 2.6853C213.656 0.391935 210.803 0.151933 208.656 0.0185976C207.418 -0.0597056 206.176 0.107958 205.003 0.511931C203.976 1.05451 203.198 1.9712 202.829 3.07198C202.223 4.24874 201.895 5.54864 201.869 6.87202C201.821 7.76509 201.728 8.65514 201.589 9.53872C201.509 10.1787 200.936 12.0854 201.696 12.4054C204.536 13.5921 207.736 13.4988 210.736 13.5121C211.616 13.5121 217.736 13.4054 217.069 11.4721M213.989 11.7388C213.855 11.9651 213.657 12.1467 213.42 12.2606C213.182 12.3745 212.917 12.4156 212.656 12.3788H209.229H209.016C208.126 12.4037 207.235 12.3681 206.349 12.2721C205.896 12.2273 205.449 12.1334 205.016 11.9921C204.856 11.9921 204.123 11.5254 203.949 11.6054C204.855 11.3646 205.786 11.2348 206.723 11.2188C207.607 11.107 208.498 11.0491 209.389 11.0454H212.203C212.656 11.0454 213.123 11.0454 213.536 11.0454C213.764 11.0634 213.991 11.0946 214.216 11.1387C214.109 11.1387 213.883 11.5388 213.829 11.6321M209.349 9.93873C207.516 9.90326 205.681 9.9745 203.856 10.1521C204.006 8.91312 204.086 7.66667 204.096 6.41868C204.296 4.64533 206.176 1.8453 208.096 1.29862C208.715 1.1094 209.37 1.0663 210.008 1.17273C210.647 1.27915 211.252 1.53218 211.776 1.91195C212.61 2.52386 213.215 3.39673 213.496 4.39198C214.149 6.17867 213.909 8.20537 214.443 10.0587C212.766 9.93198 211.084 9.89193 209.403 9.93873" fill="#6B4E45"/>
<path d="M153.629 4.41866C152.521 2.87682 151.17 1.52575 149.629 0.418609C149.441 0.27586 149.24 0.150879 149.029 0.0452728C148.815 0.0452728 148.815 0.045272 148.629 0.231941L148.295 0.551952L146.962 1.8853L144.149 4.45866C144.114 4.60335 144.114 4.75398 144.149 4.89867C144.149 5.232 144.149 5.60534 144.229 5.60534C147.381 5.81868 150.543 5.81868 153.695 5.60534C153.782 5.21455 153.782 4.80945 153.695 4.41866M153.695 8.6587C153.718 8.41576 153.69 8.1708 153.615 7.9387C150.459 7.73205 147.292 7.73205 144.135 7.9387C144.029 7.9387 144.135 9.01872 144.135 9.11206C145.242 10.6539 146.593 12.005 148.135 13.1121C148.323 13.2656 148.529 13.3955 148.749 13.4988C148.949 13.4988 148.962 13.4988 149.135 13.2988L149.482 12.9921C149.935 12.5654 150.389 12.1387 150.815 11.6587L153.615 9.07206C153.65 8.92743 153.65 8.77668 153.615 8.63205" fill="#6B4E45"/>
<path d="M176.829 11.4854C176.781 11.3396 176.694 11.2101 176.576 11.1121C176.132 9.42128 175.882 7.68577 175.829 5.93867C175.612 4.75759 175.197 3.6216 174.602 2.57862C173.456 0.285257 170.602 0.0452544 168.442 -0.0880806C167.208 -0.166381 165.971 0.0013264 164.802 0.405273C163.776 0.947852 162.998 1.86452 162.629 2.9653C162.023 4.14206 161.694 5.44197 161.669 6.76534C161.616 7.65864 161.518 8.54869 161.375 9.43204C161.375 10.072 160.735 11.9787 161.495 12.2988C164.335 13.4854 167.535 13.3921 170.535 13.4054C171.416 13.4054 177.522 13.2988 176.856 11.3654M173.776 11.6321C173.619 11.8754 173.397 12.0695 173.136 12.1921C172.934 12.2588 172.721 12.2859 172.509 12.2721C171.362 12.2721 170.215 12.2721 169.082 12.2721H168.869C167.979 12.2971 167.088 12.2614 166.202 12.1654C165.749 12.1206 165.302 12.0267 164.869 11.8854C164.709 11.8854 163.975 11.4187 163.802 11.4987C164.703 11.2589 165.63 11.1291 166.562 11.1121C167.447 11.0008 168.337 10.9429 169.229 10.9387H172.029C172.496 10.9387 172.962 10.9387 173.362 10.9387C173.595 10.9558 173.827 10.987 174.056 11.0321C173.949 11.0321 173.709 11.4321 173.656 11.5254M169.162 9.93872C167.328 9.90325 165.494 9.97449 163.669 10.1521C163.819 8.91311 163.899 7.66666 163.909 6.41867C164.109 4.64532 165.989 1.84529 167.909 1.29861C168.526 1.10949 169.178 1.06645 169.814 1.1729C170.451 1.27935 171.054 1.53236 171.576 1.91194C172.416 2.51951 173.027 3.39349 173.309 4.39198C173.962 6.17867 173.722 8.20536 174.242 10.0587C172.552 9.93011 170.856 9.89006 169.162 9.93872Z" fill="#6B4E45"/>
<path d="M113.361 4.41866C112.253 2.87805 110.902 1.5272 109.361 0.418609C109.178 0.275859 108.982 0.150852 108.775 0.0452728C108.575 0.0452728 108.561 0.045272 108.388 0.231941L108.041 0.551952L106.708 1.8853C105.788 2.73865 104.855 3.60531 103.908 4.45866C103.874 4.60335 103.874 4.75398 103.908 4.89867C103.908 5.232 103.908 5.60534 103.988 5.60534C107.144 5.81867 110.312 5.81867 113.468 5.60534C113.555 5.21455 113.555 4.80945 113.468 4.41866M113.468 8.6587C113.468 8.32537 113.468 7.95204 113.388 7.9387C110.236 7.73202 107.074 7.73202 103.921 7.9387C103.815 7.9387 103.921 9.01872 103.921 9.11206C105.025 10.657 106.376 12.0087 107.921 13.1121C108.105 13.2654 108.306 13.3953 108.521 13.4988C108.735 13.4988 108.735 13.4988 108.921 13.2988C109.108 13.0988 109.415 13.0988 109.521 12.9921C109.988 12.5654 110.175 12.1387 110.628 11.6587L113.441 9.07206C113.476 8.92743 113.476 8.77668 113.441 8.63205" fill="#6B4E45"/>
<path d="M136.562 11.4854C136.509 11.3421 136.422 11.2139 136.308 11.1121C135.875 9.45512 135.62 7.75653 135.548 6.04534C135.332 4.86427 134.917 3.72828 134.322 2.6853C133.175 0.391933 130.322 0.15193 128.162 0.018595C126.928 -0.0597055 125.69 0.107982 124.522 0.511928C123.495 1.05451 122.717 1.9712 122.348 3.07198C121.73 4.24414 121.401 5.54696 121.388 6.87201C121.388 7.75202 121.188 8.68537 121.095 9.53871C121.015 10.1787 120.455 12.0854 121.215 12.4054C124.055 13.5921 127.242 13.4988 130.255 13.5121C131.122 13.5121 137.242 13.4054 136.575 11.4721M133.495 11.7388C133.339 11.982 133.117 12.1762 132.855 12.2988C132.653 12.3645 132.44 12.3916 132.228 12.3788H128.788H128.588C127.698 12.4037 126.807 12.3681 125.922 12.2721C125.468 12.2273 125.021 12.1334 124.588 11.9921C124.415 11.9921 123.695 11.5254 123.508 11.6054C124.414 11.3655 125.345 11.2357 126.282 11.2187C127.166 11.107 128.057 11.0491 128.948 11.0454H131.828C132.282 11.0454 132.748 11.0454 133.162 11.0454C133.394 11.0634 133.626 11.0945 133.855 11.1387C133.748 11.1387 133.508 11.5387 133.455 11.6321M128.868 9.93872C127.035 9.90302 125.2 9.97425 123.375 10.1521C123.52 8.91285 123.596 7.66641 123.602 6.41868C123.802 4.64532 125.682 1.84529 127.602 1.29862C128.221 1.10939 128.875 1.0663 129.514 1.17272C130.152 1.27915 130.757 1.53217 131.282 1.91195C132.119 2.52318 132.729 3.39574 133.015 4.39198C133.655 6.17867 133.428 8.20536 133.948 10.0587C132.276 9.93196 130.598 9.89191 128.922 9.93872" fill="#6B4E45"/>
<path d="M73.081 4.41866C71.9775 2.87368 70.6259 1.52206 69.0809 0.418609C68.8929 0.27586 68.692 0.150879 68.4809 0.0452728C68.2809 0.0452728 68.2676 0.045272 68.0942 0.231941L67.8275 0.605277L66.4942 1.93863L63.6942 4.51198C63.6667 4.65737 63.6667 4.80661 63.6942 4.95199C63.6942 5.28533 63.6942 5.65867 63.7742 5.65867C66.9306 5.87199 70.0978 5.87199 73.2543 5.65867C73.3472 5.26856 73.3472 4.86209 73.2543 4.47198M73.2543 8.71205C73.2543 8.37871 73.2543 8.00536 73.1743 7.99203C70.0221 7.78535 66.8597 7.78535 63.7075 7.99203C63.6008 7.99203 63.7075 9.07205 63.7075 9.16538C64.811 10.7104 66.1626 12.062 67.7076 13.1654C67.8907 13.3187 68.0923 13.4486 68.3076 13.5521C68.5076 13.5521 68.5209 13.5521 68.7076 13.3521L69.0409 13.0454C69.5076 12.6188 69.9476 12.1921 70.3743 11.7121L73.1876 9.12538C73.2222 8.98075 73.2222 8.83001 73.1876 8.68538" fill="#6B4E45"/>
<path d="M96.2946 11.4854C96.2419 11.3421 96.1549 11.2139 96.0412 11.1121C95.6078 9.45513 95.353 7.75654 95.2812 6.04535C95.059 4.86379 94.6398 3.72796 94.0412 2.6853C92.8945 0.391935 90.0412 0.151933 87.8945 0.0185976C86.656 -0.0597056 85.4144 0.107958 84.2411 0.511931C83.2147 1.05451 82.4365 1.9712 82.0677 3.07198C81.46 4.24745 81.1358 5.54882 81.121 6.87202C81.121 7.75203 80.921 8.68537 80.8277 9.53872C80.7477 10.1787 80.1744 12.0854 80.9477 12.4054C83.7744 13.5921 86.9744 13.4988 89.9745 13.5121C90.8545 13.5121 96.9746 13.4054 96.3079 11.4721M93.2279 11.7388C93.0663 11.9825 92.8401 12.1764 92.5745 12.2988C92.3773 12.3654 92.1689 12.3926 91.9612 12.3788H88.5211H88.3211C87.4308 12.4034 86.5399 12.3678 85.6544 12.2721C85.2008 12.2298 84.7534 12.1358 84.3211 11.9921C84.1477 11.9921 83.4144 11.5254 83.2411 11.6054C84.1464 11.3646 85.0777 11.2348 86.0144 11.2188C86.899 11.107 87.7895 11.0491 88.6811 11.0454H91.4945C91.9478 11.0454 92.4145 11.0454 92.8278 11.0454C93.0561 11.0634 93.2832 11.0946 93.5079 11.1387C93.4012 11.1387 93.1745 11.5388 93.1212 11.6321M88.6011 9.93873C86.763 9.90328 84.9243 9.97452 83.0944 10.1521C83.2446 8.91312 83.3247 7.66667 83.3344 6.41868C83.5344 4.64533 85.4144 1.8453 87.3344 1.29862C87.9535 1.1094 88.608 1.0663 89.2466 1.17273C89.8851 1.27915 90.4903 1.53218 91.0145 1.91195C91.8527 2.51943 92.4593 3.39404 92.7345 4.39198C93.3879 6.17867 93.1479 8.20537 93.6812 10.0587C92.0088 9.93197 90.331 9.89192 88.6545 9.93873" fill="#6B4E45"/>
<path d="M32.8137 4.41866C31.7103 2.87368 30.3587 1.52206 28.8137 0.418609C28.6257 0.27586 28.4248 0.150879 28.2137 0.0452728C28.0137 0.0452728 28.0003 0.045272 27.827 0.231941L27.4803 0.551952L26.147 1.8853L23.3336 4.45866C23.3062 4.60404 23.3062 4.75328 23.3336 4.89867C23.3336 5.232 23.3336 5.60534 23.4136 5.60534C26.5656 5.81868 29.7284 5.81868 32.8804 5.60534C33.0004 5.60534 32.9604 4.51199 32.8804 4.41866M32.8804 8.6587C32.8804 8.32537 32.8804 7.95204 32.8004 7.9387C29.6482 7.73202 26.4858 7.73202 23.3336 7.9387C23.2136 7.9387 23.2536 9.01872 23.3336 9.11206C24.44 10.6545 25.7912 12.0057 27.3337 13.1121C27.5215 13.2656 27.7275 13.3955 27.947 13.4988C28.147 13.4988 28.1603 13.4988 28.3337 13.2988L28.6803 12.9921C29.147 12.5654 29.587 12.1387 30.0137 11.6587L32.8271 9.07206C32.8616 8.92743 32.8616 8.77668 32.8271 8.63205" fill="#6B4E45"/>
<path d="M56.0141 11.4854C55.9718 11.337 55.883 11.2062 55.7607 11.1121C55.3273 9.45512 55.0725 7.75653 55.0007 6.04534C54.7785 4.86379 54.3593 3.72796 53.7607 2.6853C52.614 0.391933 49.7606 0.15193 47.6006 0.018595C46.3666 -0.0597055 45.1293 0.107982 43.9606 0.511928C42.9349 1.05167 42.16 1.97006 41.8005 3.07198C41.1845 4.24554 40.8512 5.5468 40.8272 6.87201C40.8272 7.75202 40.6272 8.68537 40.5339 9.53871C40.5339 10.1787 39.8939 12.0854 40.6672 12.4054C43.4939 13.5921 46.6939 13.4988 49.694 13.5121C50.574 13.5121 56.6807 13.4054 56.0141 11.4721M52.9473 11.7388C52.7828 11.9798 52.5574 12.173 52.294 12.2988C52.0966 12.3644 51.8883 12.3916 51.6807 12.3788C50.5207 12.3788 49.3873 12.3788 48.2406 12.3788H48.0273C47.137 12.4037 46.246 12.3681 45.3606 12.2721C44.9073 12.2273 44.4602 12.1334 44.0272 11.9921C43.8672 11.9921 43.1339 11.5254 42.9606 11.6054C43.8659 11.3646 44.7972 11.2348 45.7339 11.2187C46.6185 11.107 47.509 11.0491 48.4006 11.0454H51.2007C51.6673 11.0454 52.134 11.0454 52.6007 11.0454C52.8333 11.0644 53.0647 11.0955 53.294 11.1387C53.174 11.1387 52.9474 11.5387 52.894 11.6321M48.3206 9.93872C46.4869 9.90326 44.6527 9.97449 42.8272 10.1521C42.9774 8.91311 43.0576 7.66667 43.0672 6.41868C43.2672 4.64532 45.1473 1.84529 47.0673 1.29862C47.6863 1.10939 48.3409 1.0663 48.9794 1.17272C49.6179 1.27915 50.2231 1.53217 50.7473 1.91195C51.5855 2.51943 52.1921 3.39403 52.4673 4.39198C53.1207 6.17867 52.8807 8.20536 53.4007 10.0587C51.7283 9.93196 50.0505 9.89191 48.374 9.93872" fill="#6B4E45"/>
<path d="M15.7469 11.4854C15.6993 11.3396 15.6115 11.2102 15.4935 11.1121C15.0708 9.4534 14.8206 7.75547 14.7469 6.04536C14.5246 4.8638 14.1055 3.72797 13.5068 2.68531C12.3602 0.391946 9.5068 0.151943 7.34677 0.0186082C6.11279 -0.0579251 4.87582 0.109715 3.70673 0.511941C2.68101 1.05168 1.90613 1.97007 1.5467 3.07199C0.918593 4.24088 0.584521 5.54511 0.573353 6.87203C0.573353 7.75204 0.373351 8.68538 0.280017 9.53873C0.280017 10.1787 -0.359991 12.0854 0.413352 12.4054C3.24005 13.5921 6.44009 13.4988 9.44013 13.5121C10.3068 13.5121 16.4269 13.4054 15.7602 11.4721M12.6802 11.7388C12.5239 11.982 12.302 12.1762 12.0402 12.2988C11.8427 12.3644 11.6345 12.3916 11.4268 12.3788C10.2668 12.3788 9.13346 12.3788 7.97345 12.3788H7.82678C6.93649 12.4038 6.04553 12.3681 5.16008 12.2721C4.7068 12.2273 4.25974 12.1334 3.82673 11.9921C3.65339 11.9921 2.93338 11.5254 2.76005 11.6054C3.66524 11.3637 4.59663 11.2339 5.53341 11.2188C6.41798 11.107 7.30852 11.0491 8.20011 11.0454H11.0002C11.4668 11.0454 11.9202 11.0454 12.3335 11.0454C12.5705 11.0643 12.8064 11.0954 13.0402 11.1387C12.9202 11.1387 12.6935 11.5388 12.6268 11.6321M8.05344 9.93874C6.21972 9.90303 4.38548 9.97427 2.56004 10.1521C2.71026 8.91313 2.79039 7.66668 2.80005 6.41869C3.00005 4.64534 4.86674 1.84531 6.8001 1.29863C7.41904 1.10837 8.07376 1.06474 8.71247 1.17119C9.35119 1.27764 9.95637 1.53125 10.4801 1.91196C11.3211 2.51953 11.9319 3.39351 12.2135 4.39199C12.8535 6.17868 12.6268 8.20538 13.1468 10.0587C11.4745 9.93198 9.79664 9.89193 8.12012 9.93874" fill="#6B4E45"/>
</g>
<defs>
<clipPath id="clip0_6_12">
<rect width="217.096" height="13.5307" fill="white"/>
</clipPath>
</defs>
</svg>
